<?xml version="1.0" encoding="UTF-8"?>
<!-- Generator: Adobe Illustrator 19.0.0, SVG Export Plug-In . SVG Version: 6.00 Build 0)  -->
<svg version="1.1" id="Livello_1" xmlns="http://www.w3.org/2000/svg" xmlns:xlink="http://www.w3.org/1999/xlink" x="0px" y="0px" viewBox="-429 231.3 99.8 99.7" style="enable-background:new -429 231.3 99.8 99.7;" xml:space="preserve">
<style type="text/css">
	.st0{fill:#E0A217;}
</style>
<path id="XMLID_21_" class="st0" d="M-330,257.8c-0.9-16.3-12.4-25.9-28.8-26c-14.1-0.2-28.2-0.2-42.3-0.1  c-16.8,0.2-27.9,11.2-28.3,28c-0.2,7.3,0,14.6,0,21.8c0,7.1-0.1,14.3,0,21.4c0.3,16.7,11.6,28.1,28.2,28.5c2.4,0.1,4.5,0.1,7.5,0.1  c0-12.5,0-25.2,0-38.2c-4,0-7,0-9,0c0-5,0-11,0-16c2,0,4.8,0,8.3,0c0-5-0.1-7.6,0-11c0.3-13.7,7.7-21,21.3-21.2  c4.6,0,9.4-0.2,14.4-0.2c0,5.5,0,10.8,0,16.7c-3,0-6.4,0.1-9.5,0c-3.9-0.1-6,1.7-5.8,5.7c0.1,2.8-0.1,6-0.1,9c5,0,9.8,0,15.3,0  c-0.6,6-1.1,11-1.7,17c-4.7,0-8.2,0-13.2,0c0,13,0,25.6,0,38.3c6,0,10.7-0.1,16.1-0.2c16-0.4,26.8-10.1,27.7-26.1  C-329,289.6-329.1,273.6-330,257.8z"/>
</svg>