<?xml version="1.0" encoding="utf-8"?>
<!-- Generator: Adobe Illustrator 21.0.0, SVG Export Plug-In . SVG Version: 6.00 Build 0)  -->
<svg version="1.1" id="Layer_1" xmlns="http://www.w3.org/2000/svg" xmlns:xlink="http://www.w3.org/1999/xlink" x="0px" y="0px"
	 viewBox="0 0 800 800" style="enable-background:new 0 0 800 800;" xml:space="preserve">
<style type="text/css">
	.st0{fill:#EF4136;}
</style>
<path class="st0" d="M236.8,633.2c-17.9,0-35.8-6.8-49.5-20.5c-27.3-27.3-27.3-71.7,0-99l326.4-326.4c27.3-27.3,71.7-27.3,99,0
	c27.3,27.3,27.3,71.7,0,99L286.3,612.7C272.7,626.3,254.7,633.2,236.8,633.2z"/>
<path class="st0" d="M166.8,236.8c0-17.9,6.8-35.8,20.5-49.5c27.3-27.3,71.7-27.3,99,0l326.4,326.4c27.3,27.3,27.3,71.7,0,99
	c-27.3,27.3-71.7,27.3-99,0L187.3,286.3C173.7,272.7,166.8,254.7,166.8,236.8z"/>
</svg>
