<?xml version="1.0" encoding="utf-8"?><svg xmlns="http://www.w3.org/2000/svg" xmlns:xlink="http://www.w3.org/1999/xlink"><symbol id="calendar" viewBox="0 0 22 24" xmlns="http://www.w3.org/2000/svg"><defs><style>.acls-1{fill:#333}</style></defs><title>icon-calendar-black</title><path class="acls-1" d="M21.225 24H.774A.773.773 0 0 1 0 23.228V3.484a.773.773 0 0 1 .774-.772h20.451a.773.773 0 0 1 .775.772v19.744a.773.773 0 0 1-.775.772zM1.548 22.455h18.9V4.256h-18.9z"/><path class="acls-1" d="M21.226 9.452H.775a.772.772 0 1 1 0-1.545h20.451a.772.772 0 1 1 0 1.545zM5.888 4.256a.773.773 0 0 1-.774-.772V.772a.774.774 0 0 1 1.548 0v2.712a.773.773 0 0 1-.774.772zm10.225 0a.773.773 0 0 1-.774-.772V.772a.774.774 0 0 1 1.548 0v2.712a.773.773 0 0 1-.774.772zM5.888 14.318h-.643a.772.772 0 1 1 0-1.545h.644a.772.772 0 1 1 0 1.545zm0 4.893h-.643a.772.772 0 1 1 0-1.545h.644a.772.772 0 1 1 0 1.545zm5.434-4.893h-.643a.772.772 0 1 1 0-1.545h.644a.772.772 0 1 1 0 1.545zm0 4.893h-.643a.772.772 0 1 1 0-1.545h.644a.772.772 0 1 1 0 1.545zm5.434-4.893h-.643a.772.772 0 1 1 0-1.545h.644a.772.772 0 1 1 0 1.545zm0 4.893h-.643a.772.772 0 1 1 0-1.545h.644a.772.772 0 1 1 0 1.545z"/></symbol><symbol viewBox="0 0 20 20" id="comment" xmlns="http://www.w3.org/2000/svg"><path d="M20 2c0-1.1-.9-2-2-2H2C.9 0 0 .9 0 2v12c0 1.1.9 2 2 2h14l4 4V2zm-4 10H4v-2h12v2zm0-3H4V7h12v2zm0-3H4V4h12v2z"/></symbol><symbol viewBox="0 0 23 16.391" id="email" xmlns="http://www.w3.org/2000/svg"><path d="M22.632 14.851l-6.476-7.022 6.48-6.493a.213.213 0 0 1 .364.149v13.22c0 .195-.238.288-.368.146zm-9.892-3.603a1.976 1.976 0 0 1-1.402.582h-.016c-.535 0-1.05-.212-1.429-.591L7.975 9.323l-6.587 6.705a.213.213 0 0 0 .151.362h20a.213.213 0 0 0 .158-.357l-6.596-7.149-2.361 2.364zm-1.42-.906a.536.536 0 0 0 .377-.156L21.502.364a.213.213 0 0 0-.15-.364H1.258a.212.212 0 0 0-.15.363l9.838 9.821a.52.52 0 0 0 .374.158zM0 1.876v12.918c0 .19.231.285.365.148L6.92 8.271.363 1.726a.213.213 0 0 0-.363.15z"/></symbol><symbol viewBox="0 0 512 512" id="expert" xmlns="http://www.w3.org/2000/svg"><path stroke-width="37.615" stroke-linecap="round" stroke-linejoin="round" stroke-miterlimit="10" d="M259.216 29.942l71.054 143.977 158.89 23.088L374.185 309.08l27.145 158.23-142.114-74.698-142.112 74.698 27.146-158.23L29.274 197.007l158.891-23.088z"/></symbol><symbol id="fb" viewBox="-429 231.3 99.8 99.7" xmlns="http://www.w3.org/2000/svg"><style>.est0{fill:#e0a217}</style><path id="eXMLID_21_" class="est0" d="M-330 257.8c-.9-16.3-12.4-25.9-28.8-26-14.1-.2-28.2-.2-42.3-.1-16.8.2-27.9 11.2-28.3 28-.2 7.3 0 14.6 0 21.8 0 7.1-.1 14.3 0 21.4.3 16.7 11.6 28.1 28.2 28.5 2.4.1 4.5.1 7.5.1v-38.2h-9v-16h8.3c0-5-.1-7.6 0-11 .3-13.7 7.7-21 21.3-21.2 4.6 0 9.4-.2 14.4-.2v16.7c-3 0-6.4.1-9.5 0-3.9-.1-6 1.7-5.8 5.7.1 2.8-.1 6-.1 9h15.3l-1.7 17h-13.2v38.3c6 0 10.7-.1 16.1-.2 16-.4 26.8-10.1 27.7-26.1.9-15.7.8-31.7-.1-47.5z"/></symbol><symbol id="gap" viewBox="0 0 800 800" xmlns="http://www.w3.org/2000/svg"><style>.fst0{fill:#ef4136}</style><path class="fst0" d="M236.8 633.2c-17.9 0-35.8-6.8-49.5-20.5-27.3-27.3-27.3-71.7 0-99l326.4-326.4c27.3-27.3 71.7-27.3 99 0 27.3 27.3 27.3 71.7 0 99L286.3 612.7c-13.6 13.6-31.6 20.5-49.5 20.5z"/><path class="fst0" d="M166.8 236.8c0-17.9 6.8-35.8 20.5-49.5 27.3-27.3 71.7-27.3 99 0l326.4 326.4c27.3 27.3 27.3 71.7 0 99-27.3 27.3-71.7 27.3-99 0L187.3 286.3c-13.6-13.6-20.5-31.6-20.5-49.5z"/></symbol><symbol viewBox="0 0 26 22" id="gh" xmlns="http://www.w3.org/2000/svg"><path d="M25.047 17.422C22.984 21.594 17.313 22 13.25 22 9.125 22 3.109 21.641.969 17.422.172 15.844 0 13.984 0 12.25c0-2.281.625-4.438 2.125-6.188a8.585 8.585 0 0 1-.422-2.656c0-1.172.266-2.343.797-3.406 2.469 0 4.047 1.078 5.922 2.547A20.895 20.895 0 0 1 13.25 2c1.469 0 2.953.156 4.375.5C19.484 1.047 21.063 0 23.5 0a7.629 7.629 0 0 1 .797 3.406c0 .891-.141 1.781-.422 2.625C25.375 7.797 26 9.969 26 12.25c0 1.734-.172 3.578-.953 5.172zM18.5 10.5c-1.031 0-2.016.188-3.047.328-.812.125-1.625.172-2.453.172s-1.641-.047-2.453-.172c-1.016-.14-2.016-.328-3.047-.328-2.547 0-4 2.109-4 4.5 0 4.781 4.375 5.516 8.188 5.516h2.625c3.813 0 8.188-.734 8.188-5.516-.001-2.391-1.454-4.5-4.001-4.5zM8 18c-1.406 0-2-1.859-2-3s.594-3 2-3 2 1.859 2 3-.594 3-2 3zm10 0c-1.406 0-2-1.859-2-3s.594-3 2-3 2 1.859 2 3-.594 3-2 3z"/></symbol><symbol viewBox="0 0 50 50" id="gh_round" xmlns="http://www.w3.org/2000/svg"><path d="M30.5 24.5c-1.031 0-2.016.188-3.047.328-.812.125-1.625.172-2.453.172s-1.641-.047-2.453-.172c-1.016-.14-2.016-.328-3.047-.328-2.547 0-4 2.109-4 4.5 0 4.781 4.375 5.516 8.188 5.516h2.625c3.813 0 8.188-.734 8.188-5.516-.001-2.391-1.454-4.5-4.001-4.5zM20 32c-1.406 0-2-1.859-2-3s.594-3 2-3 2 1.859 2 3-.594 3-2 3zm10 0c-1.406 0-2-1.859-2-3s.594-3 2-3 2 1.859 2 3-.594 3-2 3z"/><path d="M25 0C11.192 0 0 11.193 0 25s11.192 25 25 25 25-11.193 25-25S38.808 0 25 0zm12.047 31.422C34.984 35.594 29.313 36 25.25 36c-4.125 0-10.141-.359-12.281-4.578-.797-1.578-.969-3.438-.969-5.172 0-2.281.625-4.438 2.125-6.188a8.59 8.59 0 0 1-.422-2.656c0-1.172.266-2.344.797-3.406 2.469 0 4.047 1.078 5.922 2.547A20.895 20.895 0 0 1 25.25 16c1.469 0 2.953.156 4.375.5 1.859-1.453 3.438-2.5 5.875-2.5a7.629 7.629 0 0 1 .797 3.406c0 .891-.141 1.781-.422 2.625C37.375 21.797 38 23.969 38 26.25c0 1.734-.172 3.578-.953 5.172z"/></symbol><symbol viewBox="0 0 24 22.938" id="in" xmlns="http://www.w3.org/2000/svg"><path d="M2.875 5.344h-.031C1.109 5.344 0 4.156 0 2.672 0 1.156 1.156 0 2.906 0c1.766 0 2.859 1.156 2.875 2.672.016 1.484-1.109 2.672-2.906 2.672zm2.578 17.594H.297V7.453h5.156v15.485zm18.547 0h-5.141v-8.281c0-2.078-.75-3.5-2.609-3.5-1.422 0-2.266.953-2.641 1.875-.125.344-.172.797-.172 1.266v8.641h-5.14c.063-14.031 0-15.484 0-15.484h5.141v2.25h-.031c.672-1.063 1.891-2.609 4.672-2.609 3.391 0 5.922 2.219 5.922 6.969v8.873z"/></symbol><symbol viewBox="0 0 50 50" id="in_round" xmlns="http://www.w3.org/2000/svg"><path d="M25 0C11.192 0 0 11.193 0 25s11.192 25 25 25 25-11.193 25-25S38.808 0 25 0zm-5.547 34.136h-5.156V18.651h5.156v15.485zm-2.578-17.594h-.031C15.11 16.542 14 15.354 14 13.87c0-1.516 1.156-2.672 2.906-2.672 1.766 0 2.859 1.156 2.875 2.672.016 1.484-1.109 2.672-2.906 2.672zM38 34.136h-5.141v-8.281c0-2.078-.75-3.5-2.609-3.5-1.422 0-2.266.953-2.641 1.875-.125.344-.172.797-.172 1.266v8.641h-5.141c.063-14.031 0-15.484 0-15.484h5.141v2.204c.678-1.061 1.898-2.563 4.641-2.563 3.391 0 5.922 2.219 5.922 6.969v8.873z"/></symbol><symbol id="knowledge" viewBox="0 0 512 512" xmlns="http://www.w3.org/2000/svg"><style>.kst0{fill:#41ad49}</style><path class="kst0" d="M434.8 49L174.2 309.7l-97.4-97.4L0 289.2l174.1 174.1 22.5-22.4 315.1-315.1L434.8 49z"/></symbol><symbol id="like" viewBox="0 0 512 512" xmlns="http://www.w3.org/2000/svg"><style>.lst0{fill:#4b4b4b}</style><path class="lst0" d="M484.5 327.114c16.188-6.984 27.5-23.047 27.5-41.781 0-19.25-11.969-35.625-28.859-42.297 9.891-8.359 16.281-20.672 16.281-34.625 0-25.172-20.391-45.563-45.547-45.563H350.063c9.969-19.625 18.625-45.563 15.672-76.594-2.766-29.203-27.391-80.828-65.359-83.875-29.25-2.344-34.906 8.625-34.906 37.969 0 0 .328 28.422.328 46.641 0 32.641-10.859 49.25-49.234 76.766-50.625 36.297-59.406 55.031-59.406 55.031v216.672c0 27.219 22.063 49.281 49.281 49.281h209.906c25.188 0 59.219-12.156 59.219-45.547 0-12.5-5.031-23.813-13.188-32.047 22.031-3.188 39.016-21.969 39.016-44.891-.001-14.233-6.658-26.78-16.892-35.14zM96.703 202.849H24.625C11.031 202.849 0 213.864 0 227.489v257.813c0 13.594 11.031 24.625 24.625 24.625h72.078c13.609 0 24.641-11.031 24.641-24.625V227.489c0-13.625-11.031-24.64-24.641-24.64zM65.906 470.817c-12.594 0-22.813-10.219-22.813-22.813s10.219-22.813 22.813-22.813c12.625 0 22.813 10.219 22.813 22.813s-10.188 22.813-22.813 22.813z"/></symbol><symbol viewBox="0 0 14.137 15.422" id="login" xmlns="http://www.w3.org/2000/svg"><path d="M11.456 15.422H2.681C1.084 15.422 0 14.448 0 12.821c0-2.269.532-5.753 3.474-5.753.312 0 1.627 1.396 3.595 1.396s3.283-1.396 3.595-1.396c2.941 0 3.474 3.484 3.474 5.753-.001 1.627-1.085 2.601-2.682 2.601zM7.068 7.711A3.856 3.856 0 1 1 7.069 0a3.856 3.856 0 0 1-.001 7.711z"/></symbol><symbol viewBox="0 0 16.897 15.984" id="password" xmlns="http://www.w3.org/2000/svg"><path d="M15.743 12.078c-.261 0-1.074-.943-1.285-1.154l-.964.964 2.209 2.209a.973.973 0 0 1 .281.683c0 .563-.643 1.205-1.205 1.205a.978.978 0 0 1-.683-.281L7.359 8.966c-1.054.783-2.339 1.315-3.664 1.315C1.506 10.281 0 8.765 0 6.586 0 3.293 3.293 0 6.586 0c2.18 0 3.695 1.506 3.695 3.695 0 1.325-.532 2.61-1.315 3.665l3.564 3.564.964-.964c-.211-.211-1.154-1.024-1.154-1.285 0-.231.924-1.155 1.154-1.155.08 0 .171.041.23.101.372.372 3.173 3.012 3.173 3.303 0 .23-.923 1.154-1.154 1.154zM6.426 1.928a1.928 1.928 0 0 0-1.928 1.928c0 .291.07.572.19.833a1.973 1.973 0 0 0-.833-.191 1.928 1.928 0 1 0 1.928 1.928c0-.291-.07-.572-.19-.833.261.121.542.191.833.191a1.928 1.928 0 0 0 0-3.856z"/></symbol><symbol viewBox="0 0 1000 1000" id="share" xmlns="http://www.w3.org/2000/svg"><path d="M169.3 954.4C81.3 954.4 10 883 10 795V205.4C10 117.4 81.3 46 169.3 46h151.5c26.3 0 47.7 21.2 47.7 47.8 0 26.4-21.2 47.8-47.8 47.8H177.3c-37.3 10.6-61.1 34.4-71.7 71.7V787c10.6 37.3 34.4 61.1 71.7 71.7H751c37.3-10.6 61.1-34.4 71.7-71.7V619.7c0-26.4 21.2-47.7 47.8-47.8 26.4 0 47.8 21.4 47.8 47.9V795c0 88-71.3 159.4-159.3 159.4H169.3zm557.8-478.5c-9.8 0-17.9-1.9-23.9 0-19.4-14.8-30.7-33.4-23.9-47.8v-47.8c-174.7-12-369.1 155.3-414.7 310.7-10-34.1-15.6-70.2-15.6-107.6 0-207.9 218.8-430.2 430.2-442.2V93.4c-6.8-14.4 4.5-33 23.9-47.8 6 1.9 14.1 0 23.9 0 9.5 0 20.7 3.7 23.9 0l217.8 172.1c13.3 10.1 21.2 26.1 21.2 43s-7.9 32.9-21.2 43L751 475.9c-3.2-3.7-14.4 0-23.9 0z"/></symbol></svg>