<svg id="Layer_1" data-name="Layer 1" xmlns="http://www.w3.org/2000/svg" viewBox="0 0 22 24"><defs><style>.cls-1{fill:#333;}</style></defs><title>icon-calendar-black</title><path class="cls-1" d="M21.225,24H.774A.773.773,0,0,1,0,23.228V3.484a.773.773,0,0,1,.774-.772H21.225A.773.773,0,0,1,22,3.484V23.228A.773.773,0,0,1,21.225,24ZM1.548,22.455h18.9V4.256H1.548Z"/><path class="cls-1" d="M21.226,9.452H.775a.772.772,0,1,1,0-1.545H21.226a.772.772,0,1,1,0,1.545Z"/><path class="cls-1" d="M5.888,4.256a.773.773,0,0,1-.774-.772V.772a.774.774,0,0,1,1.548,0V3.484A.773.773,0,0,1,5.888,4.256Z"/><path class="cls-1" d="M16.113,4.256a.773.773,0,0,1-.774-.772V.772a.774.774,0,0,1,1.548,0V3.484A.773.773,0,0,1,16.113,4.256Z"/><path class="cls-1" d="M5.888,14.318H5.245a.772.772,0,1,1,0-1.545h.644a.772.772,0,1,1,0,1.545Z"/><path class="cls-1" d="M5.888,19.211H5.245a.772.772,0,1,1,0-1.545h.644a.772.772,0,1,1,0,1.545Z"/><path class="cls-1" d="M11.322,14.318h-.643a.772.772,0,1,1,0-1.545h.644a.772.772,0,1,1,0,1.545Z"/><path class="cls-1" d="M11.322,19.211h-.643a.772.772,0,1,1,0-1.545h.644a.772.772,0,1,1,0,1.545Z"/><path class="cls-1" d="M16.756,14.318h-.643a.772.772,0,1,1,0-1.545h.644a.772.772,0,1,1,0,1.545Z"/><path class="cls-1" d="M16.756,19.211h-.643a.772.772,0,1,1,0-1.545h.644a.772.772,0,1,1,0,1.545Z"/></svg>